<mxfile host="app.diagrams.net" agent="Mozilla/5.0 (Windows NT 10.0; Win64; x64) AppleWebKit/537.36 (KHTML, like Gecko) Chrome/130.0.0.0 Safari/537.36" version="24.8.3">
  <diagram name="Страница — 1" id="uHgSwbcOy5UZ2GPsdtII">
    <mxGraphModel dx="1909" dy="1027" grid="1" gridSize="10" guides="1" tooltips="1" connect="1" arrows="1" fold="1" page="1" pageScale="1" pageWidth="1654" pageHeight="2336" math="0" shadow="0">
      <root>
        <mxCell id="0" />
        <mxCell id="1" parent="0" />
        <mxCell id="JhhHS0An5bEgP6lO7rYI-5" value="" style="endArrow=none;html=1;rounded=0;dashed=1;dashPattern=8 8;" parent="1" source="JhhHS0An5bEgP6lO7rYI-73" edge="1">
          <mxGeometry width="50" height="50" relative="1" as="geometry">
            <mxPoint x="229" y="1030" as="sourcePoint" />
            <mxPoint x="229" y="160" as="targetPoint" />
          </mxGeometry>
        </mxCell>
        <mxCell id="JhhHS0An5bEgP6lO7rYI-6" value="" style="endArrow=none;html=1;rounded=0;dashed=1;dashPattern=8 8;" parent="1" edge="1">
          <mxGeometry width="50" height="50" relative="1" as="geometry">
            <mxPoint x="549" y="1230" as="sourcePoint" />
            <mxPoint x="549" y="170" as="targetPoint" />
          </mxGeometry>
        </mxCell>
        <mxCell id="JhhHS0An5bEgP6lO7rYI-7" value="Клиент" style="shape=umlActor;verticalLabelPosition=bottom;verticalAlign=top;html=1;outlineConnect=0;" parent="1" vertex="1">
          <mxGeometry x="215" y="70" width="30" height="60" as="geometry" />
        </mxCell>
        <mxCell id="JhhHS0An5bEgP6lO7rYI-10" value="Приложение" style="rounded=0;whiteSpace=wrap;html=1;" parent="1" vertex="1">
          <mxGeometry x="490" y="90" width="120" height="60" as="geometry" />
        </mxCell>
        <mxCell id="JhhHS0An5bEgP6lO7rYI-11" value="" style="endArrow=classic;html=1;rounded=0;" parent="1" edge="1">
          <mxGeometry width="50" height="50" relative="1" as="geometry">
            <mxPoint x="240" y="230" as="sourcePoint" />
            <mxPoint x="540" y="230" as="targetPoint" />
          </mxGeometry>
        </mxCell>
        <mxCell id="JhhHS0An5bEgP6lO7rYI-12" value="Выбор даты и время бронирования&amp;nbsp;" style="text;strokeColor=none;fillColor=none;align=left;verticalAlign=middle;spacingLeft=4;spacingRight=4;overflow=hidden;points=[[0,0.5],[1,0.5]];portConstraint=eastwest;rotatable=0;whiteSpace=wrap;html=1;" parent="1" vertex="1">
          <mxGeometry x="250" y="200" width="250" height="30" as="geometry" />
        </mxCell>
        <mxCell id="JhhHS0An5bEgP6lO7rYI-13" value="БД" style="rounded=0;whiteSpace=wrap;html=1;" parent="1" vertex="1">
          <mxGeometry x="810" y="90" width="120" height="60" as="geometry" />
        </mxCell>
        <mxCell id="JhhHS0An5bEgP6lO7rYI-14" value="" style="endArrow=none;html=1;rounded=0;dashed=1;dashPattern=8 8;" parent="1" source="JhhHS0An5bEgP6lO7rYI-65" edge="1">
          <mxGeometry width="50" height="50" relative="1" as="geometry">
            <mxPoint x="870" y="1035" as="sourcePoint" />
            <mxPoint x="870" y="165" as="targetPoint" />
          </mxGeometry>
        </mxCell>
        <mxCell id="JhhHS0An5bEgP6lO7rYI-15" value="" style="endArrow=classic;html=1;rounded=0;" parent="1" edge="1">
          <mxGeometry width="50" height="50" relative="1" as="geometry">
            <mxPoint x="560" y="250" as="sourcePoint" />
            <mxPoint x="860" y="250" as="targetPoint" />
          </mxGeometry>
        </mxCell>
        <mxCell id="JhhHS0An5bEgP6lO7rYI-16" value="Проверить доступность столов в БД" style="text;strokeColor=none;fillColor=none;align=left;verticalAlign=middle;spacingLeft=4;spacingRight=4;overflow=hidden;points=[[0,0.5],[1,0.5]];portConstraint=eastwest;rotatable=0;whiteSpace=wrap;html=1;" parent="1" vertex="1">
          <mxGeometry x="580" y="220" width="230" height="30" as="geometry" />
        </mxCell>
        <mxCell id="JhhHS0An5bEgP6lO7rYI-17" value="" style="endArrow=classic;html=1;rounded=0;dashed=1;dashPattern=8 8;" parent="1" edge="1">
          <mxGeometry width="50" height="50" relative="1" as="geometry">
            <mxPoint x="860" y="300" as="sourcePoint" />
            <mxPoint x="560" y="300" as="targetPoint" />
          </mxGeometry>
        </mxCell>
        <mxCell id="JhhHS0An5bEgP6lO7rYI-18" value="Вернуть данные" style="text;strokeColor=none;fillColor=none;align=left;verticalAlign=middle;spacingLeft=4;spacingRight=4;overflow=hidden;points=[[0,0.5],[1,0.5]];portConstraint=eastwest;rotatable=0;whiteSpace=wrap;html=1;" parent="1" vertex="1">
          <mxGeometry x="580" y="270" width="230" height="30" as="geometry" />
        </mxCell>
        <mxCell id="JhhHS0An5bEgP6lO7rYI-21" value="" style="endArrow=classic;html=1;rounded=0;dashed=1;dashPattern=8 8;" parent="1" edge="1">
          <mxGeometry width="50" height="50" relative="1" as="geometry">
            <mxPoint x="540" y="408.57" as="sourcePoint" />
            <mxPoint x="240" y="408.57" as="targetPoint" />
          </mxGeometry>
        </mxCell>
        <mxCell id="JhhHS0An5bEgP6lO7rYI-22" value="Отобразить доступные столы для выбора" style="text;strokeColor=none;fillColor=none;align=left;verticalAlign=middle;spacingLeft=4;spacingRight=4;overflow=hidden;points=[[0,0.5],[1,0.5]];portConstraint=eastwest;rotatable=0;whiteSpace=wrap;html=1;" parent="1" vertex="1">
          <mxGeometry x="250" y="380" width="270" height="30" as="geometry" />
        </mxCell>
        <mxCell id="JhhHS0An5bEgP6lO7rYI-23" value="" style="endArrow=classic;html=1;rounded=0;" parent="1" edge="1">
          <mxGeometry width="50" height="50" relative="1" as="geometry">
            <mxPoint x="240" y="460" as="sourcePoint" />
            <mxPoint x="540" y="460" as="targetPoint" />
          </mxGeometry>
        </mxCell>
        <mxCell id="JhhHS0An5bEgP6lO7rYI-24" value="Выбрать и забронировать&amp;nbsp; стол" style="text;strokeColor=none;fillColor=none;align=left;verticalAlign=middle;spacingLeft=4;spacingRight=4;overflow=hidden;points=[[0,0.5],[1,0.5]];portConstraint=eastwest;rotatable=0;whiteSpace=wrap;html=1;" parent="1" vertex="1">
          <mxGeometry x="250" y="430" width="250" height="30" as="geometry" />
        </mxCell>
        <mxCell id="JhhHS0An5bEgP6lO7rYI-26" value="" style="endArrow=classic;html=1;rounded=0;" parent="1" edge="1">
          <mxGeometry width="50" height="50" relative="1" as="geometry">
            <mxPoint x="560" y="480" as="sourcePoint" />
            <mxPoint x="860" y="480" as="targetPoint" />
          </mxGeometry>
        </mxCell>
        <mxCell id="JhhHS0An5bEgP6lO7rYI-27" value="Изменить данные о доступных столиках в БД" style="text;strokeColor=none;fillColor=none;align=left;verticalAlign=middle;spacingLeft=4;spacingRight=4;overflow=hidden;points=[[0,0.5],[1,0.5]];portConstraint=eastwest;rotatable=0;whiteSpace=wrap;html=1;" parent="1" vertex="1">
          <mxGeometry x="580" y="450" width="280" height="30" as="geometry" />
        </mxCell>
        <mxCell id="JhhHS0An5bEgP6lO7rYI-28" value="" style="endArrow=classic;html=1;rounded=0;dashed=1;dashPattern=8 8;" parent="1" edge="1">
          <mxGeometry width="50" height="50" relative="1" as="geometry">
            <mxPoint x="540" y="530" as="sourcePoint" />
            <mxPoint x="240" y="530" as="targetPoint" />
          </mxGeometry>
        </mxCell>
        <mxCell id="JhhHS0An5bEgP6lO7rYI-29" value="Прислать уведомление об успешном бронировании" style="text;strokeColor=none;fillColor=none;align=left;verticalAlign=middle;spacingLeft=4;spacingRight=4;overflow=hidden;points=[[0,0.5],[1,0.5]];portConstraint=eastwest;rotatable=0;whiteSpace=wrap;html=1;" parent="1" vertex="1">
          <mxGeometry x="250" y="490" width="280" height="30" as="geometry" />
        </mxCell>
        <mxCell id="JhhHS0An5bEgP6lO7rYI-30" value="" style="endArrow=classic;html=1;rounded=0;" parent="1" edge="1">
          <mxGeometry width="50" height="50" relative="1" as="geometry">
            <mxPoint x="240" y="740" as="sourcePoint" />
            <mxPoint x="540" y="740" as="targetPoint" />
          </mxGeometry>
        </mxCell>
        <mxCell id="JhhHS0An5bEgP6lO7rYI-32" value="Выбрать блюда из меню" style="text;strokeColor=none;fillColor=none;align=left;verticalAlign=middle;spacingLeft=4;spacingRight=4;overflow=hidden;points=[[0,0.5],[1,0.5]];portConstraint=eastwest;rotatable=0;whiteSpace=wrap;html=1;" parent="1" vertex="1">
          <mxGeometry x="250" y="710" width="250" height="30" as="geometry" />
        </mxCell>
        <mxCell id="JhhHS0An5bEgP6lO7rYI-33" value="" style="endArrow=classic;html=1;rounded=0;" parent="1" edge="1">
          <mxGeometry width="50" height="50" relative="1" as="geometry">
            <mxPoint x="560" y="860" as="sourcePoint" />
            <mxPoint x="860" y="860" as="targetPoint" />
          </mxGeometry>
        </mxCell>
        <mxCell id="JhhHS0An5bEgP6lO7rYI-35" value="Обновить корзину заказа" style="text;strokeColor=none;fillColor=none;align=left;verticalAlign=middle;spacingLeft=4;spacingRight=4;overflow=hidden;points=[[0,0.5],[1,0.5]];portConstraint=eastwest;rotatable=0;whiteSpace=wrap;html=1;" parent="1" vertex="1">
          <mxGeometry x="250" y="760" width="280" height="30" as="geometry" />
        </mxCell>
        <mxCell id="JhhHS0An5bEgP6lO7rYI-37" value="Подтвердить заказ&amp;nbsp;" style="text;strokeColor=none;fillColor=none;align=left;verticalAlign=middle;spacingLeft=4;spacingRight=4;overflow=hidden;points=[[0,0.5],[1,0.5]];portConstraint=eastwest;rotatable=0;whiteSpace=wrap;html=1;" parent="1" vertex="1">
          <mxGeometry x="250" y="810" width="250" height="30" as="geometry" />
        </mxCell>
        <mxCell id="JhhHS0An5bEgP6lO7rYI-38" value="" style="endArrow=classic;html=1;rounded=0;" parent="1" edge="1">
          <mxGeometry width="50" height="50" relative="1" as="geometry">
            <mxPoint x="240" y="840" as="sourcePoint" />
            <mxPoint x="540" y="840" as="targetPoint" />
          </mxGeometry>
        </mxCell>
        <mxCell id="JhhHS0An5bEgP6lO7rYI-40" value="" style="endArrow=classic;html=1;rounded=0;dashed=1;dashPattern=8 8;" parent="1" edge="1">
          <mxGeometry width="50" height="50" relative="1" as="geometry">
            <mxPoint x="540" y="790" as="sourcePoint" />
            <mxPoint x="240" y="790" as="targetPoint" />
          </mxGeometry>
        </mxCell>
        <mxCell id="JhhHS0An5bEgP6lO7rYI-41" value="Сохранить заказ в БД" style="text;strokeColor=none;fillColor=none;align=left;verticalAlign=middle;spacingLeft=4;spacingRight=4;overflow=hidden;points=[[0,0.5],[1,0.5]];portConstraint=eastwest;rotatable=0;whiteSpace=wrap;html=1;" parent="1" vertex="1">
          <mxGeometry x="580" y="830" width="280" height="30" as="geometry" />
        </mxCell>
        <mxCell id="JhhHS0An5bEgP6lO7rYI-43" value="Кухня" style="rounded=0;whiteSpace=wrap;html=1;" parent="1" vertex="1">
          <mxGeometry x="1130" y="90" width="120" height="60" as="geometry" />
        </mxCell>
        <mxCell id="JhhHS0An5bEgP6lO7rYI-44" value="" style="endArrow=none;html=1;rounded=0;dashed=1;dashPattern=8 8;" parent="1" edge="1">
          <mxGeometry width="50" height="50" relative="1" as="geometry">
            <mxPoint x="1189" y="1040" as="sourcePoint" />
            <mxPoint x="1189.29" y="170" as="targetPoint" />
          </mxGeometry>
        </mxCell>
        <mxCell id="JhhHS0An5bEgP6lO7rYI-47" value="Отправить заказ на кухню" style="text;strokeColor=none;fillColor=none;align=left;verticalAlign=middle;spacingLeft=4;spacingRight=4;overflow=hidden;points=[[0,0.5],[1,0.5]];portConstraint=eastwest;rotatable=0;whiteSpace=wrap;html=1;" parent="1" vertex="1">
          <mxGeometry x="890" y="885" width="280" height="30" as="geometry" />
        </mxCell>
        <mxCell id="JhhHS0An5bEgP6lO7rYI-48" value="" style="endArrow=classic;html=1;rounded=0;dashed=1;dashPattern=8 8;entryX=1.096;entryY=0.695;entryDx=0;entryDy=0;entryPerimeter=0;" parent="1" edge="1">
          <mxGeometry width="50" height="50" relative="1" as="geometry">
            <mxPoint x="1180" y="975" as="sourcePoint" />
            <mxPoint x="561.9200000000005" y="972.95" as="targetPoint" />
          </mxGeometry>
        </mxCell>
        <mxCell id="JhhHS0An5bEgP6lO7rYI-51" value="Начать готовить заказ" style="text;strokeColor=none;fillColor=none;align=left;verticalAlign=middle;spacingLeft=4;spacingRight=4;overflow=hidden;points=[[0,0.5],[1,0.5]];portConstraint=eastwest;rotatable=0;whiteSpace=wrap;html=1;" parent="1" vertex="1">
          <mxGeometry x="890" y="945" width="280" height="30" as="geometry" />
        </mxCell>
        <mxCell id="JhhHS0An5bEgP6lO7rYI-53" value="" style="endArrow=classic;html=1;rounded=0;" parent="1" edge="1">
          <mxGeometry width="50" height="50" relative="1" as="geometry">
            <mxPoint x="560" y="1030" as="sourcePoint" />
            <mxPoint x="860" y="1030" as="targetPoint" />
          </mxGeometry>
        </mxCell>
        <mxCell id="JhhHS0An5bEgP6lO7rYI-54" value="Обновить статус заказа в БД" style="text;strokeColor=none;fillColor=none;align=left;verticalAlign=middle;spacingLeft=4;spacingRight=4;overflow=hidden;points=[[0,0.5],[1,0.5]];portConstraint=eastwest;rotatable=0;whiteSpace=wrap;html=1;" parent="1" vertex="1">
          <mxGeometry x="580" y="1000" width="280" height="30" as="geometry" />
        </mxCell>
        <mxCell id="JhhHS0An5bEgP6lO7rYI-55" value="" style="endArrow=classic;html=1;rounded=0;dashed=1;dashPattern=8 8;" parent="1" edge="1">
          <mxGeometry width="50" height="50" relative="1" as="geometry">
            <mxPoint x="540" y="1200" as="sourcePoint" />
            <mxPoint x="240" y="1200" as="targetPoint" />
          </mxGeometry>
        </mxCell>
        <mxCell id="JhhHS0An5bEgP6lO7rYI-56" value="" style="endArrow=classic;html=1;rounded=0;dashed=1;dashPattern=8 8;entryX=1;entryY=0.846;entryDx=0;entryDy=0;entryPerimeter=0;" parent="1" edge="1">
          <mxGeometry width="50" height="50" relative="1" as="geometry">
            <mxPoint x="1175" y="1095" as="sourcePoint" />
            <mxPoint x="560.0000000000005" y="1095.2599999999998" as="targetPoint" />
          </mxGeometry>
        </mxCell>
        <mxCell id="JhhHS0An5bEgP6lO7rYI-57" value="Закончить приготовление блюд" style="text;strokeColor=none;fillColor=none;align=left;verticalAlign=middle;spacingLeft=4;spacingRight=4;overflow=hidden;points=[[0,0.5],[1,0.5]];portConstraint=eastwest;rotatable=0;whiteSpace=wrap;html=1;" parent="1" vertex="1">
          <mxGeometry x="890" y="1065" width="280" height="30" as="geometry" />
        </mxCell>
        <mxCell id="JhhHS0An5bEgP6lO7rYI-58" value="" style="endArrow=classic;html=1;rounded=0;" parent="1" edge="1">
          <mxGeometry width="50" height="50" relative="1" as="geometry">
            <mxPoint x="560" y="1150" as="sourcePoint" />
            <mxPoint x="860" y="1150" as="targetPoint" />
          </mxGeometry>
        </mxCell>
        <mxCell id="JhhHS0An5bEgP6lO7rYI-59" value="Обновить статус заказа в БД" style="text;strokeColor=none;fillColor=none;align=left;verticalAlign=middle;spacingLeft=4;spacingRight=4;overflow=hidden;points=[[0,0.5],[1,0.5]];portConstraint=eastwest;rotatable=0;whiteSpace=wrap;html=1;" parent="1" vertex="1">
          <mxGeometry x="580" y="1120" width="280" height="30" as="geometry" />
        </mxCell>
        <mxCell id="JhhHS0An5bEgP6lO7rYI-60" value="&lt;span style=&quot;color: rgb(0, 0, 0); font-family: Helvetica; font-size: 12px; font-style: normal; font-variant-ligatures: normal; font-variant-caps: normal; font-weight: 400; letter-spacing: normal; orphans: 2; text-align: left; text-indent: 0px; text-transform: none; widows: 2; word-spacing: 0px; -webkit-text-stroke-width: 0px; white-space: normal; background-color: rgb(251, 251, 251); text-decoration-thickness: initial; text-decoration-style: initial; text-decoration-color: initial; display: inline !important; float: none;&quot;&gt;Прислать уведомление о готовности заказа&lt;/span&gt;" style="text;whiteSpace=wrap;html=1;" parent="1" vertex="1">
          <mxGeometry x="260" y="1170" width="320" height="30" as="geometry" />
        </mxCell>
        <mxCell id="JhhHS0An5bEgP6lO7rYI-63" value="" style="rounded=0;whiteSpace=wrap;html=1;" parent="1" vertex="1">
          <mxGeometry x="220" y="190" width="20" height="670" as="geometry" />
        </mxCell>
        <mxCell id="JhhHS0An5bEgP6lO7rYI-64" value="" style="rounded=0;whiteSpace=wrap;html=1;" parent="1" vertex="1">
          <mxGeometry x="540" y="190" width="20" height="1030" as="geometry" />
        </mxCell>
        <mxCell id="JhhHS0An5bEgP6lO7rYI-66" value="" style="endArrow=none;html=1;rounded=0;dashed=1;dashPattern=8 8;" parent="1" source="JhhHS0An5bEgP6lO7rYI-75" target="JhhHS0An5bEgP6lO7rYI-65" edge="1">
          <mxGeometry width="50" height="50" relative="1" as="geometry">
            <mxPoint x="870" y="1035" as="sourcePoint" />
            <mxPoint x="870" y="165" as="targetPoint" />
          </mxGeometry>
        </mxCell>
        <mxCell id="JhhHS0An5bEgP6lO7rYI-65" value="" style="rounded=0;whiteSpace=wrap;html=1;" parent="1" vertex="1">
          <mxGeometry x="860" y="210" width="20" height="110" as="geometry" />
        </mxCell>
        <mxCell id="JhhHS0An5bEgP6lO7rYI-70" value="" style="endArrow=none;html=1;rounded=0;dashed=1;dashPattern=8 8;" parent="1" target="JhhHS0An5bEgP6lO7rYI-67" edge="1">
          <mxGeometry width="50" height="50" relative="1" as="geometry">
            <mxPoint x="870" y="1230" as="sourcePoint" />
            <mxPoint x="870" y="570" as="targetPoint" />
          </mxGeometry>
        </mxCell>
        <mxCell id="JhhHS0An5bEgP6lO7rYI-67" value="" style="rounded=0;whiteSpace=wrap;html=1;" parent="1" vertex="1">
          <mxGeometry x="860" y="1000" width="20" height="170" as="geometry" />
        </mxCell>
        <mxCell id="JhhHS0An5bEgP6lO7rYI-71" value="" style="rounded=0;whiteSpace=wrap;html=1;" parent="1" vertex="1">
          <mxGeometry x="1180" y="885" width="20" height="225" as="geometry" />
        </mxCell>
        <mxCell id="JhhHS0An5bEgP6lO7rYI-45" value="" style="endArrow=classic;html=1;rounded=0;exitX=0.973;exitY=0.627;exitDx=0;exitDy=0;exitPerimeter=0;" parent="1" edge="1">
          <mxGeometry width="50" height="50" relative="1" as="geometry">
            <mxPoint x="559.4600000000005" y="917.8700000000001" as="sourcePoint" />
            <mxPoint x="1179" y="915" as="targetPoint" />
          </mxGeometry>
        </mxCell>
        <mxCell id="JhhHS0An5bEgP6lO7rYI-74" value="" style="endArrow=none;html=1;rounded=0;dashed=1;dashPattern=8 8;" parent="1" target="JhhHS0An5bEgP6lO7rYI-73" edge="1">
          <mxGeometry width="50" height="50" relative="1" as="geometry">
            <mxPoint x="229" y="1180" as="sourcePoint" />
            <mxPoint x="229" y="310" as="targetPoint" />
          </mxGeometry>
        </mxCell>
        <mxCell id="JhhHS0An5bEgP6lO7rYI-73" value="" style="rounded=0;whiteSpace=wrap;html=1;" parent="1" vertex="1">
          <mxGeometry x="220" y="1163" width="20" height="57" as="geometry" />
        </mxCell>
        <mxCell id="JhhHS0An5bEgP6lO7rYI-76" value="" style="endArrow=none;html=1;rounded=0;dashed=1;dashPattern=8 8;" parent="1" source="JhhHS0An5bEgP6lO7rYI-79" target="JhhHS0An5bEgP6lO7rYI-75" edge="1">
          <mxGeometry width="50" height="50" relative="1" as="geometry">
            <mxPoint x="870" y="780" as="sourcePoint" />
            <mxPoint x="870" y="470" as="targetPoint" />
          </mxGeometry>
        </mxCell>
        <mxCell id="JhhHS0An5bEgP6lO7rYI-75" value="" style="rounded=0;whiteSpace=wrap;html=1;" parent="1" vertex="1">
          <mxGeometry x="860" y="460" width="20" height="40" as="geometry" />
        </mxCell>
        <mxCell id="JhhHS0An5bEgP6lO7rYI-81" value="" style="endArrow=none;html=1;rounded=0;dashed=1;dashPattern=8 8;" parent="1" source="JhhHS0An5bEgP6lO7rYI-67" target="JhhHS0An5bEgP6lO7rYI-79" edge="1">
          <mxGeometry width="50" height="50" relative="1" as="geometry">
            <mxPoint x="870" y="990" as="sourcePoint" />
            <mxPoint x="870" y="650" as="targetPoint" />
          </mxGeometry>
        </mxCell>
        <mxCell id="JhhHS0An5bEgP6lO7rYI-79" value="" style="rounded=0;whiteSpace=wrap;html=1;" parent="1" vertex="1">
          <mxGeometry x="860" y="840" width="20" height="40" as="geometry" />
        </mxCell>
        <mxCell id="JhhHS0An5bEgP6lO7rYI-83" value="ALT" style="shape=card;whiteSpace=wrap;html=1;direction=south;flipV=1;fillColor=#FFFFFF;" parent="1" vertex="1">
          <mxGeometry x="200" y="320" width="100" height="60" as="geometry" />
        </mxCell>
        <mxCell id="JhhHS0An5bEgP6lO7rYI-92" value="&lt;b style=&quot;forced-color-adjust: none; color: rgb(0, 0, 0); font-family: Helvetica; font-size: 17px; font-style: normal; font-variant-ligatures: normal; font-variant-caps: normal; letter-spacing: normal; orphans: 2; text-align: left; text-indent: 0px; text-transform: none; widows: 2; word-spacing: 0px; -webkit-text-stroke-width: 0px; white-space: normal; background-color: rgb(251, 251, 251); text-decoration-thickness: initial; text-decoration-style: initial; text-decoration-color: initial;&quot;&gt;Столики найдены&lt;/b&gt;" style="text;whiteSpace=wrap;html=1;" parent="1" vertex="1">
          <mxGeometry x="320" y="330" width="180" height="40" as="geometry" />
        </mxCell>
        <mxCell id="JhhHS0An5bEgP6lO7rYI-93" value="" style="endArrow=none;html=1;rounded=0;dashed=1;dashPattern=8 8;endFill=0;" parent="1" edge="1">
          <mxGeometry width="50" height="50" relative="1" as="geometry">
            <mxPoint x="890" y="550" as="sourcePoint" />
            <mxPoint x="200" y="550" as="targetPoint" />
          </mxGeometry>
        </mxCell>
        <mxCell id="JhhHS0An5bEgP6lO7rYI-94" value="&lt;b style=&quot;forced-color-adjust: none; color: rgb(0, 0, 0); font-family: Helvetica; font-size: 17px; font-style: normal; font-variant-ligatures: normal; font-variant-caps: normal; letter-spacing: normal; orphans: 2; text-align: left; text-indent: 0px; text-transform: none; widows: 2; word-spacing: 0px; -webkit-text-stroke-width: 0px; white-space: normal; background-color: rgb(251, 251, 251); text-decoration-thickness: initial; text-decoration-style: initial; text-decoration-color: initial;&quot;&gt;Столики не найдены&lt;/b&gt;" style="text;whiteSpace=wrap;html=1;" parent="1" vertex="1">
          <mxGeometry x="295" y="560" width="180" height="40" as="geometry" />
        </mxCell>
        <mxCell id="JhhHS0An5bEgP6lO7rYI-96" value="уведомить об отсутствии мест, предложить выбрать другой временной диапазон" style="text;strokeColor=none;fillColor=none;align=left;verticalAlign=middle;spacingLeft=4;spacingRight=4;overflow=hidden;points=[[0,0.5],[1,0.5]];portConstraint=eastwest;rotatable=0;whiteSpace=wrap;html=1;" parent="1" vertex="1">
          <mxGeometry x="255" y="600" width="270" height="30" as="geometry" />
        </mxCell>
        <mxCell id="JhhHS0An5bEgP6lO7rYI-98" value="" style="endArrow=classic;html=1;rounded=0;dashed=1;dashPattern=8 8;" parent="1" edge="1">
          <mxGeometry width="50" height="50" relative="1" as="geometry">
            <mxPoint x="540" y="640" as="sourcePoint" />
            <mxPoint x="240" y="640" as="targetPoint" />
          </mxGeometry>
        </mxCell>
        <mxCell id="JhhHS0An5bEgP6lO7rYI-82" value="" style="rounded=0;whiteSpace=wrap;html=1;fillColor=none;align=left;movable=1;resizable=1;rotatable=1;deletable=1;editable=1;locked=0;connectable=1;" parent="1" vertex="1">
          <mxGeometry x="200" y="320" width="690" height="360" as="geometry" />
        </mxCell>
      </root>
    </mxGraphModel>
  </diagram>
</mxfile>
